<?xml version="1.0" standalone="no"?>
<!DOCTYPE svg PUBLIC "-//W3C//DTD SVG 20010904//EN"
 "http://www.w3.org/TR/2001/REC-SVG-20010904/DTD/svg10.dtd">
<svg version="1.0" xmlns="http://www.w3.org/2000/svg"
 width="1280.000000pt" height="1280.000000pt" viewBox="0 0 1280.000000 1280.000000"
 preserveAspectRatio="xMidYMid meet">
<metadata>
Created by potrace 1.11, written by Peter Selinger 2001-2013
</metadata>
<g transform="translate(0.000000,1280.000000) scale(0.100000,-0.100000)"
fill="#000000" stroke="none">
<path d="M6098 12775 c-2 -1 -55 -6 -118 -10 -120 -7 -165 -11 -240 -19 -25
-3 -72 -8 -105 -11 -33 -3 -70 -8 -83 -11 -12 -2 -44 -7 -70 -10 -26 -3 -99
-14 -162 -25 -982 -170 -1878 -546 -2685 -1127 -79 -57 -361 -279 -391 -307
-6 -5 -41 -37 -79 -70 -130 -114 -385 -363 -477 -466 -13 -14 -39 -43 -58 -65
-20 -21 -64 -73 -100 -114 -35 -41 -69 -80 -74 -87 -18 -20 -28 -33 -116 -148
-332 -430 -631 -938 -825 -1400 -20 -49 -43 -103 -50 -120 -57 -132 -164 -447
-224 -656 -94 -326 -171 -734 -206 -1079 -3 -28 -7 -73 -10 -102 -15 -145 -19
-270 -19 -553 0 -278 4 -399 20 -560 21 -222 30 -295 44 -375 5 -30 12 -71 14
-90 3 -20 12 -76 21 -125 10 -50 19 -99 21 -110 50 -273 216 -838 314 -1070 5
-11 37 -87 72 -170 104 -249 259 -552 406 -795 286 -474 607 -879 1000 -1263
228 -222 377 -352 602 -524 154 -117 595 -413 615 -413 3 0 22 -11 43 -24 95
-62 495 -266 637 -326 354 -148 554 -219 855 -304 191 -53 435 -110 570 -131
19 -3 42 -8 50 -10 8 -2 35 -7 60 -10 25 -3 57 -8 72 -11 15 -3 40 -7 57 -9
17 -2 66 -9 109 -14 77 -11 125 -16 237 -25 33 -3 94 -9 135 -13 101 -10 733
-10 845 0 50 4 119 10 155 13 36 2 79 6 95 9 17 2 57 7 90 11 33 3 67 8 75 9
9 2 43 6 75 10 33 4 69 9 80 11 11 2 49 9 84 14 189 31 543 112 718 166 46 13
85 25 88 25 2 0 76 24 163 54 273 92 494 183 758 311 87 42 161 76 163 74 2
-1 7 2 10 7 3 5 44 29 91 54 46 24 91 50 98 57 7 7 18 10 23 7 5 -4 9 -1 9 5
0 6 8 13 18 17 9 3 47 25 84 49 43 28 68 39 72 31 2 -7 5 -5 5 4 1 9 15 22 31
29 17 7 30 16 30 21 0 5 7 9 15 9 8 0 15 4 15 9 0 11 40 26 55 22 6 -1 7 1 2
5 -9 10 44 45 56 37 6 -3 7 -2 4 3 -3 6 15 23 41 39 26 16 49 32 52 35 3 3 37
28 75 55 39 27 86 61 105 77 19 16 40 32 45 36 6 4 25 19 43 35 19 15 39 24
45 20 7 -3 9 -3 5 2 -7 7 19 40 31 40 3 0 21 14 40 30 18 17 38 29 43 27 5 -1
7 2 3 8 -3 5 -3 10 2 10 4 0 25 16 46 36 20 19 37 33 37 31 0 -3 21 15 46 39
25 24 50 42 55 38 5 -3 8 -1 7 5 -4 15 92 102 104 95 6 -4 8 -2 5 3 -8 13 112
135 124 127 5 -3 8 -1 7 4 -4 12 112 138 124 134 4 -1 7 2 6 6 -5 15 62 83 74
76 7 -4 8 -3 4 4 -8 13 37 67 56 67 6 0 12 8 14 19 3 23 44 67 55 60 5 -3 7 1
4 8 -3 7 10 29 28 48 18 19 54 63 81 97 27 35 52 60 57 58 4 -3 11 0 15 6 4 8
3 9 -4 5 -7 -4 -12 -3 -12 2 0 14 27 34 32 25 3 -4 3 -3 2 4 -3 13 53 88 66
88 5 0 12 4 17 9 5 5 3 6 -4 2 -20 -11 -15 2 15 45 15 21 33 39 40 39 7 0 10
5 7 10 -10 17 6 34 17 19 6 -10 7 -6 3 10 -6 20 -4 23 9 18 11 -4 15 -3 11 4
-9 14 24 61 37 53 7 -4 8 -3 4 4 -9 14 12 55 24 47 5 -3 12 0 16 6 4 8 3 9 -4
5 -18 -11 -14 3 9 35 11 16 25 27 30 24 5 -4 6 1 3 9 -8 22 6 42 18 25 6 -10
7 -6 3 10 -6 19 -4 23 8 18 11 -4 14 -2 10 9 -6 16 41 94 58 94 5 0 8 4 4 9
-8 14 55 112 67 104 6 -3 8 -1 5 4 -9 14 17 65 28 55 5 -4 5 -1 1 5 -8 15 12
56 24 48 5 -3 12 0 16 6 4 8 3 9 -4 5 -7 -4 -12 -1 -12 8 0 8 3 16 8 18 4 2
30 48 59 103 29 56 57 99 64 97 9 -2 9 1 -1 12 -11 15 -7 20 13 17 5 -1 6 3 2
9 -3 5 17 58 44 116 28 58 51 110 51 115 0 6 3 8 8 6 4 -3 8 6 9 20 0 14 6 29
13 33 6 4 11 10 11 14 -3 21 1 36 12 48 6 7 14 22 15 33 2 11 15 44 28 73 13
29 24 57 24 63 0 6 7 8 16 5 14 -5 15 -4 4 9 -10 12 -10 21 0 45 7 16 16 27
21 24 5 -3 6 1 3 9 -2 7 11 58 31 113 20 54 38 110 41 123 3 14 13 31 22 39 9
7 11 11 5 7 -15 -7 -16 6 -3 37 5 13 14 42 20 65 6 23 17 49 26 58 8 8 11 15
5 15 -6 0 -6 11 1 33 5 17 10 38 11 45 0 6 4 12 9 12 5 0 7 4 4 8 -3 5 2 35
11 68 16 64 21 85 29 124 3 14 7 33 10 42 6 21 14 57 18 83 2 11 11 56 20 100
9 44 19 96 22 115 3 19 7 49 10 65 3 17 6 38 7 47 0 9 4 15 7 13 4 -2 6 10 6
28 -1 66 15 151 32 171 16 20 16 20 -2 6 -18 -14 -19 -13 -13 3 4 10 7 23 7
28 0 6 6 7 13 3 9 -6 9 -4 -1 8 -7 8 -10 26 -8 39 3 13 5 37 5 52 1 20 5 26
14 21 9 -6 9 -5 1 7 -8 9 -9 30 -5 62 5 26 5 47 2 47 -3 0 1 5 9 10 9 6 10 10
3 10 -16 0 -10 65 8 87 8 9 9 14 4 11 -14 -8 -7 343 6 357 5 5 9 14 9 20 0 5
-4 4 -9 -4 -6 -9 -10 37 -11 120 -1 147 -6 265 -14 348 -5 47 -4 52 12 47 15
-5 15 -5 1 7 -15 12 -20 36 -35 182 -3 33 -8 74 -11 90 -2 17 -6 48 -9 70 -2
22 -7 58 -10 80 -3 22 -8 51 -9 65 -5 40 -17 104 -20 110 -2 3 -6 26 -10 50
-3 25 -11 65 -16 89 -5 24 -7 46 -4 49 2 3 0 11 -6 18 -6 7 -11 35 -12 62 -1
28 -5 48 -8 46 -4 -2 -9 9 -12 24 -5 24 -21 97 -32 142 -2 8 -4 15 -5 15 -1 0
-3 7 -5 15 -12 45 -36 136 -38 145 -9 33 -42 138 -58 183 -22 62 -24 86 -7 76
7 -4 8 -3 4 5 -4 6 -11 9 -16 6 -8 -5 -43 90 -40 109 1 5 -2 12 -7 15 -14 10
-35 80 -27 92 4 7 3 9 -4 5 -16 -10 -27 35 -11 46 11 8 11 9 -1 6 -10 -3 -22
13 -37 51 -26 63 -28 75 -11 65 7 -4 8 -3 4 5 -4 6 -11 9 -16 6 -4 -2 -13 10
-20 28 -17 44 -23 58 -74 170 -25 54 -43 106 -40 115 4 12 3 13 -3 4 -7 -9
-12 -6 -21 13 -7 14 -12 32 -12 40 0 7 -3 15 -7 17 -12 5 -113 204 -113 222 0
9 -4 16 -10 16 -5 0 -18 17 -28 38 -10 20 -28 54 -41 75 -12 21 -18 43 -15 49
4 6 3 8 -3 5 -14 -9 -96 129 -87 145 4 6 3 8 -3 5 -14 -9 -56 61 -47 75 4 6 2
8 -3 5 -11 -7 -46 39 -46 60 0 7 -4 10 -9 7 -8 -5 -10 1 -12 36 -1 8 -6 15
-13 15 -16 0 -95 114 -87 126 3 5 0 8 -8 7 -7 -2 -12 5 -11 15 0 10 -2 16 -5
13 -7 -7 -32 13 -32 26 0 5 6 6 13 2 7 -4 9 -3 4 2 -5 5 -13 9 -17 9 -15 0
-122 144 -115 155 4 6 2 9 -3 8 -6 -2 -22 11 -36 27 -25 29 -30 40 -27 58 1 5
-3 6 -8 3 -5 -3 -20 9 -34 27 -13 17 -35 44 -48 58 -54 58 -104 123 -101 132
1 5 -2 6 -7 3 -11 -7 -33 18 -29 34 2 7 -5 14 -15 15 -21 4 -64 55 -59 70 2 5
0 7 -3 3 -10 -9 -67 51 -60 62 3 5 0 12 -6 16 -8 4 -9 3 -5 -4 16 -27 -10 -9
-50 35 -24 25 -40 51 -37 56 3 6 2 7 -4 4 -14 -9 -85 61 -77 75 4 6 3 8 -3 5
-13 -8 -85 52 -77 64 3 5 1 8 -4 7 -15 -4 -132 104 -125 115 3 6 1 7 -5 3 -7
-4 -22 3 -35 16 -13 13 -53 47 -90 77 -36 30 -64 58 -60 64 3 6 1 7 -4 4 -11
-7 -58 28 -58 43 0 5 -4 12 -9 17 -5 5 -6 3 -2 -4 4 -7 2 -13 -4 -13 -6 0 -13
7 -16 15 -4 8 -10 15 -16 15 -15 0 -38 27 -30 35 4 5 2 5 -4 2 -6 -4 -21 1
-32 11 -54 46 -63 52 -72 52 -6 0 -10 4 -10 9 0 5 -9 13 -20 16 -11 4 -18 11
-14 16 3 5 2 8 -3 7 -14 -5 -102 56 -96 66 3 5 2 6 -4 3 -5 -3 -40 16 -78 43
-37 28 -71 50 -76 50 -4 0 -14 6 -21 13 -7 6 -25 18 -40 26 -15 8 -25 18 -22
23 3 5 2 7 -3 6 -13 -3 -93 42 -93 53 0 6 -4 8 -8 5 -12 -7 -63 29 -55 39 5 4
2 5 -5 0 -8 -4 -25 0 -40 12 -15 10 -44 27 -64 38 -20 10 -34 23 -31 28 4 6 1
7 -6 3 -7 -5 -29 3 -51 18 -22 14 -46 26 -54 26 -8 0 -16 4 -18 8 -1 4 -34 23
-73 42 -38 19 -73 39 -77 45 -4 5 -8 7 -8 3 0 -4 -31 9 -70 28 -38 18 -74 34
-80 34 -5 0 -10 5 -10 12 0 6 -3 9 -6 5 -3 -3 -27 5 -52 18 -53 26 -289 125
-312 130 -8 2 -40 13 -70 25 -62 25 -247 90 -270 95 -8 2 -37 11 -64 20 -26 9
-56 18 -65 20 -55 14 -108 28 -121 32 -8 3 -19 7 -25 9 -22 5 -313 75 -350 84
-89 21 -305 58 -430 75 -23 3 -50 7 -60 9 -11 2 -47 7 -80 10 -33 4 -71 8 -85
11 -14 2 -63 7 -110 10 -47 4 -101 9 -120 11 -39 5 -726 14 -732 9z"/>
<path d="M12653 5115 c0 -8 4 -12 9 -9 5 3 6 10 3 15 -9 13 -12 11 -12 -6z"/>
</g>
</svg>
